<svg width="15" height="15" viewBox="0 0 15 15" fill="none" xmlns="http://www.w3.org/2000/svg">
<path d="M6.51564 13.8874L0.740639 8.11237C0.653139 8.02487 0.591013 7.93008 0.554263 7.82799C0.517513 7.72591 0.49943 7.61654 0.500014 7.49987C0.500014 7.3832 0.518389 7.27383 0.555139 7.17174C0.591889 7.06966 0.653722 6.97487 0.740639 6.88737L6.51564 1.11237C6.67606 0.951953 6.87672 0.868245 7.11764 0.861245C7.35856 0.854245 7.56622 0.937953 7.74064 1.11237C7.91564 1.27279 8.00693 1.47345 8.01451 1.71437C8.0221 1.95529 7.9381 2.16295 7.76251 2.33737L3.47501 6.62487H13.2531C13.5011 6.62487 13.709 6.70887 13.877 6.87687C14.045 7.04487 14.1287 7.25254 14.1281 7.49987C14.1281 7.74779 14.0444 7.95574 13.877 8.12374C13.7096 8.29174 13.5016 8.37545 13.2531 8.37487H3.47501L7.76251 12.6624C7.92293 12.8228 8.00693 13.027 8.01451 13.2749C8.0221 13.5228 7.9381 13.727 7.76251 13.8874C7.6021 14.0624 7.39793 14.1499 7.15001 14.1499C6.9021 14.1499 6.69064 14.0624 6.51564 13.8874Z" fill="#888888"/>
</svg>
