<svg width="12" height="12" viewBox="0 0 12 12" fill="none" xmlns="http://www.w3.org/2000/svg">
<path d="M5.10959 8.44209H6.22042V5.10959H5.10959V8.44209ZM5.66501 3.99876C5.82237 3.99876 5.95438 3.94562 6.06102 3.83935C6.16766 3.73308 6.22079 3.60108 6.22042 3.44334C6.22042 3.28597 6.1671 3.15397 6.06046 3.04733C5.95382 2.94069 5.822 2.88755 5.66501 2.88792C5.50764 2.88792 5.37563 2.94124 5.26899 3.04788C5.16235 3.15452 5.10922 3.28634 5.10959 3.44334C5.10959 3.60071 5.16291 3.73271 5.26955 3.83935C5.37619 3.94599 5.50801 3.99913 5.66501 3.99876ZM5.66501 11.2192C4.89668 11.2192 4.17464 11.0735 3.49888 10.7821C2.82312 10.4907 2.23531 10.0948 1.73543 9.59458C1.23556 9.09471 0.839917 8.50689 0.548508 7.83113C0.2571 7.15538 0.11121 6.43333 0.11084 5.66501C0.11084 4.89668 0.256729 4.17464 0.548508 3.49888C0.840287 2.82313 1.23593 2.23531 1.73543 1.73543C2.23531 1.23556 2.82312 0.839732 3.49888 0.547953C4.17464 0.256174 4.89668 0.11047 5.66501 0.110841C6.43333 0.110841 7.15538 0.25673 7.83113 0.548509C8.50689 0.840288 9.09471 1.23593 9.59458 1.73543C10.0945 2.23531 10.4903 2.82313 10.7821 3.49888C11.0738 4.17464 11.2195 4.89668 11.2192 5.66501C11.2192 6.43333 11.0733 7.15538 10.7815 7.83113C10.4897 8.50689 10.0941 9.09471 9.59458 9.59458C9.09471 10.0945 8.50689 10.4903 7.83113 10.7821C7.15538 11.0738 6.43333 11.2195 5.66501 11.2192ZM5.66501 10.1083C6.90544 10.1083 7.9561 9.67789 8.817 8.817C9.67789 7.9561 10.1083 6.90544 10.1083 5.66501C10.1083 4.42458 9.67789 3.37391 8.817 2.51302C7.9561 1.65212 6.90544 1.22167 5.66501 1.22167C4.42458 1.22167 3.37391 1.65212 2.51302 2.51302C1.65212 3.37391 1.22167 4.42458 1.22167 5.66501C1.22167 6.90544 1.65212 7.9561 2.51302 8.817C3.37391 9.67789 4.42458 10.1083 5.66501 10.1083Z" fill="white"/>
</svg>
