<svg width="19" height="19" viewBox="0 0 19 19" fill="none" xmlns="http://www.w3.org/2000/svg">
<path d="M9.5 18.25C8.28958 18.25 7.15208 18.0205 6.0875 17.5614C5.02292 17.1023 4.09688 16.4787 3.30938 15.6906C2.52188 14.9031 1.89858 13.9771 1.4395 12.9125C0.980417 11.8479 0.750583 10.7104 0.75 9.5C0.75 8.28958 0.979833 7.15208 1.4395 6.0875C1.89917 5.02292 2.52246 4.09688 3.30938 3.30938C4.09688 2.52188 5.02292 1.89829 6.0875 1.43863C7.15208 0.978959 8.28958 0.749418 9.5 0.750001C10.7104 0.750001 11.8479 0.979835 12.9125 1.4395C13.9771 1.89917 14.9031 2.52246 15.6906 3.30938C16.4781 4.09688 17.1017 5.02292 17.5614 6.0875C18.021 7.15208 18.2506 8.28958 18.25 9.5C18.25 10.7104 18.0202 11.8479 17.5605 12.9125C17.1008 13.9771 16.4775 14.9031 15.6906 15.6906C14.9031 16.4781 13.9771 17.1017 12.9125 17.5614C11.8479 18.021 10.7104 18.2506 9.5 18.25ZM9.5 16.5C11.4542 16.5 13.1094 15.8219 14.4656 14.4656C15.8219 13.1094 16.5 11.4542 16.5 9.5C16.5 7.54583 15.8219 5.89063 14.4656 4.53438C13.1094 3.17813 11.4542 2.5 9.5 2.5C7.54583 2.5 5.89062 3.17813 4.53437 4.53438C3.17812 5.89063 2.5 7.54583 2.5 9.5C2.5 11.4542 3.17812 13.1094 4.53437 14.4656C5.89062 15.8219 7.54583 16.5 9.5 16.5Z" fill="white"/>
</svg>
